<svg width="20" height="20" viewBox="0 0 20 20" fill="none" xmlns="http://www.w3.org/2000/svg">
<path d="M11.0574 3.05737C11.3075 2.80741 11.6465 2.66699 12.0001 2.66699C12.3536 2.66699 12.6927 2.80741 12.9427 3.05737L18.9427 9.05737C19.1927 9.30741 19.3331 9.64649 19.3331 10C19.3331 10.3536 19.1927 10.6927 18.9427 10.9427L12.9427 16.9427C12.6913 17.1856 12.3545 17.32 12.0049 17.3169C11.6553 17.3139 11.3209 17.1737 11.0737 16.9265C10.8264 16.6793 10.6862 16.3448 10.6832 15.9952C10.6801 15.6456 10.8145 15.3088 11.0574 15.0574L14.6667 11.3334H2.00008C1.64646 11.3334 1.30732 11.1929 1.05727 10.9429C0.807224 10.6928 0.666748 10.3537 0.666748 10C0.666748 9.64642 0.807224 9.30728 1.05727 9.05723C1.30732 8.80718 1.64646 8.66671 2.00008 8.66671H14.6667L11.0574 4.94271C10.8075 4.69267 10.667 4.35359 10.667 4.00004C10.667 3.64649 10.8075 3.30741 11.0574 3.05737Z" fill="#FF3508"/>
</svg>
