<svg width="40" height="36" viewBox="0 0 40 36" fill="none" xmlns="http://www.w3.org/2000/svg">
<path fill-rule="evenodd" clip-rule="evenodd" d="M19.9629 3.94235C18.7685 3.92348 17.5816 4.11087 16.47 4.49381C15.3585 4.87675 14.3442 5.44772 13.4852 6.17404C12.6262 6.90036 11.9392 7.76777 11.4638 8.72662C10.9883 9.68548 10.7336 10.717 10.7143 11.762V22.6916C10.7143 23.3547 10.4133 23.9905 9.87745 24.4593C9.34163 24.9282 8.6149 25.1915 7.85714 25.1915H4.28571C3.14907 25.1915 2.05898 24.7965 1.25526 24.0932C0.451529 23.39 0 22.4362 0 21.4417L0 16.4419C0 15.4473 0.451529 14.4936 1.25526 13.7903C2.05898 13.0871 3.14907 12.692 4.28571 12.692H6.42857V11.7171C6.45464 10.1806 6.82638 8.66368 7.52255 7.25294C8.21873 5.8422 9.2257 4.56527 10.486 3.49508C11.7462 2.42489 13.2351 1.58241 14.8675 1.01575C16.5 0.449081 18.244 0.169337 20 0.19249C21.756 0.169337 23.5 0.449081 25.1325 1.01575C26.7649 1.58241 28.2538 2.42489 29.514 3.49508C30.7743 4.56527 31.7813 5.8422 32.4774 7.25294C33.1736 8.66368 33.5454 10.1806 33.5714 11.7171V12.692H35.7143C36.8509 12.692 37.941 13.0871 38.7447 13.7903C39.5485 14.4936 40 15.4473 40 16.4419V21.4417C40 22.4362 39.5485 23.39 38.7447 24.0932C37.941 24.7965 36.8509 25.1915 35.7143 25.1915H33.5714V26.4415C33.5718 28.1308 32.8613 29.7611 31.5754 31.0213C30.2896 32.2815 28.5184 33.0833 26.6 33.2737C26.2274 33.8557 25.6842 34.3403 25.0263 34.6773C24.3683 35.0144 23.6195 35.1917 22.8571 35.1912H18.5714C17.4348 35.1912 16.3447 34.7961 15.541 34.0928C14.7372 33.3896 14.2857 32.4358 14.2857 31.4413C14.2857 30.4468 14.7372 29.493 15.541 28.7898C16.3447 28.0865 17.4348 27.6914 18.5714 27.6914H22.8571C24.4057 27.6914 25.7629 28.4089 26.5143 29.4864C27.3018 29.328 28.0046 28.9407 28.508 28.3876C29.0114 27.8346 29.2856 27.1485 29.2857 26.4415V11.7595C29.2661 10.7091 29.0087 9.67245 28.5285 8.70955C28.0482 7.74665 27.3545 6.8766 26.4876 6.14968C25.6207 5.42277 24.5977 4.85342 23.4778 4.47455C22.3578 4.09567 21.1632 3.91479 19.9629 3.94235Z" fill="black"/>
</svg>
