<svg width="168" height="43" viewBox="0 0 168 43" fill="none" xmlns="http://www.w3.org/2000/svg">
<path d="M64.8053 12.4927V42.5645H57.4802V30.1845H46.0854V42.5645H38.7603V12.4927H46.0854V24.273H57.4802V12.4927H64.8053Z" fill="black"/>
<path d="M72.0639 16.1767C70.7788 16.1767 69.7221 15.8055 68.894 15.063C68.0943 14.2919 67.6945 13.3495 67.6945 12.2357C67.6945 11.0934 68.0943 10.151 68.894 9.40844C69.7221 8.63737 70.7788 8.25183 72.0639 8.25183C73.3205 8.25183 74.3486 8.63737 75.1482 9.40844C75.9764 10.151 76.3905 11.0934 76.3905 12.2357C76.3905 13.3495 75.9764 14.2919 75.1482 15.063C74.3486 15.8055 73.3205 16.1767 72.0639 16.1767ZM75.7051 18.6613V42.5645H68.3799V18.6613H75.7051Z" fill="black"/>
<path d="M92.6225 36.3531V42.5645H88.8956C86.2397 42.5645 84.1692 41.922 82.6842 40.6368C81.1992 39.3232 80.4567 37.1956 80.4567 34.2541V24.7442H77.5437V18.6613H80.4567V12.8354H87.7819V18.6613H92.5796V24.7442H87.7819V34.3398C87.7819 35.0537 87.9532 35.5678 88.2959 35.8819C88.6386 36.196 89.2098 36.3531 90.0094 36.3531H92.6225Z" fill="black"/>
<path d="M117.522 30.2274C117.522 30.9128 117.479 31.6267 117.393 32.3692H100.815C100.929 33.8543 101.401 34.9966 102.229 35.7962C103.085 36.5673 104.128 36.9528 105.356 36.9528C107.184 36.9528 108.454 36.1818 109.168 34.6396H116.965C116.565 36.2103 115.837 37.6239 114.78 38.8805C113.752 40.1371 112.453 41.1223 110.882 41.8363C109.311 42.5502 107.555 42.9072 105.613 42.9072C103.271 42.9072 101.186 42.4074 99.3586 41.4079C97.5309 40.4084 96.103 38.9805 95.0749 37.1242C94.0468 35.2679 93.5328 33.0975 93.5328 30.6129C93.5328 28.1283 94.0325 25.9579 95.0321 24.1016C96.0602 22.2454 97.4881 20.8174 99.3158 19.8179C101.144 18.8184 103.243 18.3186 105.613 18.3186C107.926 18.3186 109.982 18.8041 111.781 19.7751C113.581 20.746 114.98 22.1311 115.98 23.9303C117.008 25.7295 117.522 27.8285 117.522 30.2274ZM110.025 28.2997C110.025 27.0431 109.597 26.0436 108.74 25.3011C107.883 24.5586 106.812 24.1873 105.527 24.1873C104.299 24.1873 103.257 24.5443 102.4 25.2582C101.572 25.9722 101.058 26.986 100.858 28.2997H110.025Z" fill="black"/>
<path d="M118.216 30.6129C118.216 28.1283 118.716 25.9579 119.715 24.1016C120.743 22.2454 122.157 20.8174 123.956 19.8179C125.784 18.8184 127.869 18.3186 130.211 18.3186C133.209 18.3186 135.708 19.1039 137.707 20.6747C139.735 22.2454 141.063 24.4586 141.691 27.3144H133.895C133.238 25.4867 131.967 24.5728 130.082 24.5728C128.74 24.5728 127.669 25.1012 126.869 26.1578C126.07 27.1859 125.67 28.6709 125.67 30.6129C125.67 32.5549 126.07 34.0542 126.869 35.1108C127.669 36.1389 128.74 36.653 130.082 36.653C131.967 36.653 133.238 35.7391 133.895 33.9114H141.691C141.063 36.7101 139.735 38.9091 137.707 40.5083C135.679 42.1076 133.181 42.9072 130.211 42.9072C127.869 42.9072 125.784 42.4074 123.956 41.4079C122.157 40.4084 120.743 38.9805 119.715 37.1242C118.716 35.2679 118.216 33.0975 118.216 30.6129Z" fill="black"/>
<path d="M158.589 18.4043C161.33 18.4043 163.529 19.3181 165.186 21.1459C166.842 22.945 167.67 25.4296 167.67 28.5996V42.5645H160.388V29.5848C160.388 27.9855 159.974 26.7433 159.146 25.858C158.318 24.9727 157.204 24.53 155.804 24.53C154.405 24.53 153.291 24.9727 152.463 25.858C151.635 26.7433 151.221 27.9855 151.221 29.5848V42.5645H143.896V10.8649H151.221V21.8741C151.963 20.8174 152.977 19.975 154.262 19.3467C155.547 18.7184 156.99 18.4043 158.589 18.4043Z" fill="black"/>
<path d="M0.8313 26.8456L0.831299 0.842834H9.50076L9.50076 14.2095C11.0139 13.6254 12.6582 13.3052 14.3773 13.3052C21.8586 13.3052 27.9234 19.37 27.9234 26.8512V42.5646H19.2539V26.8512C19.2539 24.158 17.0706 21.9747 14.3773 21.9747C11.6853 21.9747 9.5027 24.156 9.50076 26.8476C9.50076 26.8488 9.50076 26.85 9.50076 26.8512L9.50076 42.5646H0.831301L0.831299 26.8512C0.831299 26.8494 0.831299 26.8475 0.8313 26.8456Z" fill="black"/>
<path d="M19.2539 9.5123V0.842834H27.9234V9.5123L19.2539 9.5123Z" fill="black"/>
</svg>
