<svg width="188" height="39" viewBox="0 0 188 39" fill="none" xmlns="http://www.w3.org/2000/svg">
<path d="M45.6338 32.9709V27.4404H49.0039V6.65801H45.6338V1.12756H58.9414V6.65801H55.5713L55.4849 27.4404H58.9414V32.9709H45.6338Z" fill="black"/>
<path d="M61.9747 32.9709V10.3738H68.6285V13.9167L72.5603 10.3738H80.4671L85.2631 15.2129V32.9709H78.6092V16.3795L76.9674 14.6945H73.5541L68.6285 19.2311V32.9709H61.9747Z" fill="black"/>
<path d="M89.0166 32.9709V28.0453H101.028L102.497 26.5763V25.4097L100.898 23.7678H92.3436L87.8501 19.4904V14.6512L92.3003 10.417H106.775V15.2993H95.7137L94.3743 16.7252V17.5461L95.9297 19.1447H104.571L109.065 23.379V28.6934L104.614 32.9709H89.0166Z" fill="black"/>
<path d="M111.87 38.9072V9.95172H118.524V12.933L121.721 9.90851H129.844L134.64 14.7477V27.7096L129.844 32.5056H121.764L118.524 29.5243V38.9072H111.87ZM122.672 28.1849H126.647L128.116 26.6727V15.7846L126.647 14.2292L122.672 14.2724L118.524 18.161V24.2963L122.672 28.1849Z" fill="black"/>
<path d="M137.983 7.91101V2.20773H144.637V7.91101H137.983ZM137.983 32.9709V10.3738H144.637V32.9709H137.983Z" fill="black"/>
<path d="M148.523 32.9709V10.3738H155.177V14.1328L159.109 10.417H163.905V16.6387H158.115L155.177 19.4472V32.9709H148.523Z" fill="black"/>
<path d="M170.711 32.9709L165.915 28.1749V15.2129L170.711 10.417H182.204L187.043 15.2129V23.6814H172.569V26.2738L174.297 28.0021L186.654 27.9589V32.9709H170.711ZM172.526 19.3176H180.735V16.3795L179.007 14.6512L174.297 14.6945L172.526 16.3795V19.3176Z" fill="black"/>
<path d="M26.1989 4.20093H22.6081V0.103149H33.194V10.6891H29.0962V7.09874L3.76349 32.4315L0.865924 29.5339L26.1989 4.20093Z" fill="black"/>
<path d="M3.56798 2.41066L0.67041 5.30823L11.0181 15.6559L13.9156 12.7583L3.56798 2.41066Z" fill="black"/>
<path d="M17.6411 22.2789L20.5386 19.3813L29.0962 27.9389V24.3483H33.194V34.9342H22.6081V30.8365H26.1987L17.6411 22.2789Z" fill="black"/>
</svg>
