<svg width="230" height="45" viewBox="0 0 230 45" fill="none" xmlns="http://www.w3.org/2000/svg">
<path d="M4.56828 15.06C6.80828 14.9 7.87495 14.82 7.76828 14.82H7.92828V16.18V17.54L8.36828 17.06C9.19495 16.2867 10.0083 15.74 10.8083 15.42C11.8749 14.9933 12.9683 14.7933 14.0883 14.82C15.1816 14.8467 16.0883 15.0467 16.8083 15.42C17.6883 15.8467 18.3283 16.5267 18.7283 17.46L18.8883 17.74L18.9683 17.62C19.1283 17.3267 19.5683 16.9 20.2883 16.34C21.1949 15.6467 22.2083 15.1933 23.3283 14.98C24.5816 14.7133 25.8083 14.7533 27.0083 15.1C27.6483 15.2333 28.2216 15.5133 28.7283 15.94C29.6083 16.66 30.1283 17.7933 30.2883 19.34C30.315 19.5267 30.3283 21.3667 30.3283 24.86C30.3283 28.2467 30.3416 29.9533 30.3683 29.98C30.4749 30.1667 31.2216 30.26 32.6083 30.26H33.4483V31.38V32.5H33.1283L30.6083 32.42C29.1416 32.3933 27.7016 32.3933 26.2883 32.42L23.8483 32.5H23.4883V31.38V30.26H24.3283C25.7416 30.26 26.4883 30.1533 26.5683 29.94V24.54C26.5416 20.86 26.4616 18.82 26.3283 18.42C26.0883 17.54 25.5283 16.9933 24.6483 16.78C24.0883 16.6733 23.4883 16.6867 22.8483 16.82C21.7549 17.06 20.8749 17.7 20.2083 18.74C19.8083 19.3 19.5283 19.9667 19.3683 20.74C19.3149 20.98 19.2749 22.5533 19.2483 25.46V29.94C19.3283 30.1533 20.0883 30.26 21.5283 30.26H22.3683V31.38V32.5H22.0483L19.5283 32.42C18.0616 32.3933 16.6216 32.3933 15.2083 32.42L12.7683 32.5H12.4083V31.38V30.26H13.2483C14.6616 30.26 15.4083 30.1533 15.4883 29.94V24.54C15.4616 20.86 15.3816 18.82 15.2483 18.42C15.0083 17.54 14.4483 16.9933 13.5683 16.78C13.0083 16.6733 12.4083 16.6867 11.7683 16.82C10.6749 17.06 9.79495 17.7 9.12828 18.74C8.72828 19.3 8.44828 19.9667 8.28828 20.74C8.23495 20.98 8.19495 22.5533 8.16828 25.46V29.94C8.24828 30.1533 9.00828 30.26 10.4483 30.26H11.2883V31.38V32.5H10.9683L8.44828 32.42C7.00828 32.3933 5.56828 32.3933 4.12828 32.42L1.60828 32.5H1.28828V31.38V30.26H2.12828C3.51495 30.26 4.26161 30.1667 4.36828 29.98V18.86C4.26161 18.22 3.92828 17.82 3.36828 17.66C3.07495 17.58 2.62161 17.5267 2.00828 17.5H1.28828V16.38V15.26H1.36828L4.56828 15.06ZM74.5686 16.38V15.26H74.8486L76.9686 15.34C78.1953 15.3667 79.5286 15.3667 80.9686 15.34C82.6219 15.2867 83.4619 15.26 83.4886 15.26H83.8086V16.38V17.5H83.1286C82.1419 17.5533 81.6219 17.66 81.5686 17.82L85.2086 27.7C85.2353 27.7 85.7953 26.2333 86.8886 23.3C87.9819 20.2867 88.5153 18.6867 88.4886 18.5C88.4886 18.4733 88.4619 18.4067 88.4086 18.3C88.1953 17.8467 87.7019 17.58 86.9286 17.5H86.6486V16.38V15.26H86.9286L88.9686 15.34C90.1686 15.3667 91.2486 15.3667 92.2086 15.34L93.8886 15.26H94.1286V16.38V17.5H93.8886C93.3286 17.5 92.8219 17.5667 92.3686 17.7C91.5953 17.86 91.0619 18.1933 90.7686 18.7C90.6886 18.8067 89.7953 21.14 88.0886 25.7C86.3819 30.3133 85.5153 32.6333 85.4886 32.66C85.3553 32.8467 84.9819 32.94 84.3686 32.94C83.7286 32.94 83.3419 32.8467 83.2086 32.66C83.1819 32.6333 82.2619 30.1933 80.4486 25.34C78.6353 20.5133 77.7153 18.0467 77.6886 17.94C77.5553 17.7 77.1019 17.5667 76.3286 17.54C76.1686 17.5133 75.9686 17.5 75.7286 17.5H74.5686V16.38ZM103.541 14.62C104.048 14.54 104.795 14.5667 105.781 14.7C107.221 14.94 108.421 15.54 109.381 16.5C110.395 17.5133 111.061 18.9 111.381 20.66C111.488 21.4067 111.541 22.0867 111.541 22.7C111.541 22.8867 111.488 23.0333 111.381 23.14L111.261 23.26H105.821H100.381V23.94C100.381 25.9667 100.661 27.46 101.221 28.42C101.835 29.4867 102.768 30.22 104.021 30.62C104.661 30.8067 105.288 30.9 105.901 30.9C106.328 30.9 106.635 30.8733 106.821 30.82C108.101 30.4467 108.981 29.46 109.461 27.86C109.515 27.6467 109.595 27.4867 109.701 27.38L109.821 27.26H110.541H111.261L111.381 27.38C111.541 27.5133 111.555 27.7933 111.421 28.22C111.181 28.9133 110.861 29.5267 110.461 30.06C110.061 30.6733 109.528 31.2067 108.861 31.66C107.821 32.4333 106.595 32.86 105.181 32.94C102.781 33.02 100.688 32.1933 98.9014 30.46C98.1814 29.7667 97.5547 28.9133 97.0214 27.9C96.3547 26.5133 96.0347 25.02 96.0614 23.42C96.0881 22.0333 96.4214 20.6733 97.0614 19.34C98.2614 16.9133 100.115 15.3933 102.621 14.78C102.915 14.7 103.221 14.6467 103.541 14.62ZM105.141 16.58C104.795 16.4733 104.341 16.4467 103.781 16.5C102.421 16.7933 101.461 17.6333 100.901 19.02C100.608 19.8467 100.461 20.5933 100.461 21.26V21.42H104.141H107.821V21.1C107.741 20.14 107.515 19.2467 107.141 18.42C106.661 17.4867 105.995 16.8733 105.141 16.58ZM116.795 15.06C119.035 14.9 120.102 14.82 119.995 14.82H120.155V16.18V17.54L120.595 17.06C121.422 16.2867 122.235 15.74 123.035 15.42C124.102 14.9933 125.195 14.7933 126.315 14.82C127.408 14.8467 128.315 15.0467 129.035 15.42C129.915 15.8467 130.555 16.5267 130.955 17.46L131.115 17.74L131.195 17.62C131.355 17.3267 131.795 16.9 132.515 16.34C133.422 15.6467 134.435 15.1933 135.555 14.98C136.808 14.7133 138.035 14.7533 139.235 15.1C139.875 15.2333 140.448 15.5133 140.955 15.94C141.835 16.66 142.355 17.7933 142.515 19.34C142.542 19.5267 142.555 21.3667 142.555 24.86C142.555 28.2467 142.568 29.9533 142.595 29.98C142.702 30.1667 143.448 30.26 144.835 30.26H145.675V31.38V32.5H145.355L142.835 32.42C141.368 32.3933 139.928 32.3933 138.515 32.42L136.075 32.5H135.715V31.38V30.26H136.555C137.968 30.26 138.715 30.1533 138.795 29.94V24.54C138.768 20.86 138.688 18.82 138.555 18.42C138.315 17.54 137.755 16.9933 136.875 16.78C136.315 16.6733 135.715 16.6867 135.075 16.82C133.982 17.06 133.102 17.7 132.435 18.74C132.035 19.3 131.755 19.9667 131.595 20.74C131.542 20.98 131.502 22.5533 131.475 25.46V29.94C131.555 30.1533 132.315 30.26 133.755 30.26H134.595V31.38V32.5H134.275L131.755 32.42C130.288 32.3933 128.848 32.3933 127.435 32.42L124.995 32.5H124.635V31.38V30.26H125.475C126.888 30.26 127.635 30.1533 127.715 29.94V24.54C127.688 20.86 127.608 18.82 127.475 18.42C127.235 17.54 126.675 16.9933 125.795 16.78C125.235 16.6733 124.635 16.6867 123.995 16.82C122.902 17.06 122.022 17.7 121.355 18.74C120.955 19.3 120.675 19.9667 120.515 20.74C120.462 20.98 120.422 22.5533 120.395 25.46V29.94C120.475 30.1533 121.235 30.26 122.675 30.26H123.515V31.38V32.5H123.195L120.675 32.42C119.235 32.3933 117.795 32.3933 116.355 32.42L113.835 32.5H113.515V31.38V30.26H114.355C115.742 30.26 116.488 30.1667 116.595 29.98V18.86C116.488 18.22 116.155 17.82 115.595 17.66C115.302 17.58 114.848 17.5267 114.235 17.5H113.515V16.38V15.26H113.595L116.795 15.06ZM153.915 14.62C154.022 14.5667 154.395 14.5667 155.035 14.62C156.075 14.62 156.995 14.7533 157.795 15.02C159.048 15.4467 160.062 16.0733 160.835 16.9C161.528 17.62 161.982 18.42 162.195 19.3C162.248 19.5133 162.288 21.3133 162.315 24.7C162.315 27.98 162.342 29.7267 162.395 29.94C162.582 30.4467 162.862 30.62 163.235 30.46C163.288 30.4333 163.355 30.38 163.435 30.3C163.622 30.1133 163.715 29.7 163.715 29.06C163.742 28.9 163.755 28.62 163.755 28.22V26.7H164.755H165.755V28.1C165.755 29.1133 165.742 29.6733 165.715 29.78C165.555 30.82 164.942 31.6333 163.875 32.22C162.835 32.7267 161.915 32.8733 161.115 32.66C160.342 32.4467 159.755 31.9533 159.355 31.18C159.248 31.02 159.168 30.8467 159.115 30.66L159.075 30.5L158.715 30.86C158.262 31.3133 157.702 31.7 157.035 32.02C155.755 32.6867 154.368 32.9933 152.875 32.94C151.062 32.86 149.622 32.2467 148.555 31.1C148.155 30.7 147.848 30.2733 147.635 29.82C147.128 28.7533 147.048 27.6867 147.395 26.62C147.875 25.18 148.968 24.0467 150.675 23.22C151.902 22.6067 153.315 22.18 154.915 21.94C155.928 21.7533 156.995 21.6333 158.115 21.58H158.555V20.62C158.528 19.9533 158.488 19.5133 158.435 19.3C158.355 18.9533 158.182 18.5667 157.915 18.14C157.275 17.2067 156.448 16.66 155.435 16.5C154.822 16.3933 153.942 16.42 152.795 16.58C152.582 16.6333 152.462 16.66 152.435 16.66C152.382 16.66 152.422 16.7267 152.555 16.86C152.982 17.42 153.128 18.1 152.995 18.9C152.782 19.8067 152.208 20.38 151.275 20.62C150.422 20.8333 149.675 20.6333 149.035 20.02C148.555 19.5667 148.328 18.9533 148.355 18.18C148.382 17.78 148.488 17.38 148.675 16.98C148.968 16.42 149.502 15.9133 150.275 15.46C151.208 15.0067 152.422 14.7267 153.915 14.62ZM158.555 25.42V23.42H158.315C157.808 23.42 157.248 23.4867 156.635 23.62C155.728 23.78 154.822 24.0467 153.915 24.42C152.448 25.0867 151.582 26.06 151.315 27.34C151.182 28.1667 151.342 28.9267 151.795 29.62C152.595 30.8733 153.795 31.3133 155.395 30.94C155.475 30.9133 155.555 30.8867 155.635 30.86C156.808 30.54 157.648 29.86 158.155 28.82C158.208 28.6867 158.262 28.5667 158.315 28.46C158.475 27.8467 158.555 26.8333 158.555 25.42ZM171.475 8.18V7.9H172.475H173.475V11.58V15.26H176.075H178.675V16.38V17.5H176.075H173.475V22.82C173.475 26.4467 173.488 28.34 173.515 28.5C173.675 29.8867 174.168 30.6733 174.995 30.86C175.955 31.1 176.648 30.6333 177.075 29.46C177.235 29.0067 177.328 28.14 177.355 26.86V25.26H178.355H179.355V26.86C179.328 27.9533 179.288 28.6067 179.235 28.82C178.862 30.5533 177.968 31.78 176.555 32.5C175.702 32.8733 174.822 33.0067 173.915 32.9C171.835 32.66 170.528 31.58 169.995 29.66C169.835 29.1533 169.755 28.22 169.755 26.86C169.755 27.18 169.742 25.9133 169.715 23.06V17.5H168.235H166.755V16.58V15.62H167.075C167.902 15.54 168.675 15.1667 169.395 14.5C169.982 13.9133 170.475 13.0867 170.875 12.02C171.275 10.7667 171.475 9.48667 171.475 8.18ZM185.422 15.06C187.662 14.9 188.729 14.82 188.622 14.82H188.742V15.78V16.74L188.902 16.54C189.169 16.14 189.502 15.8067 189.902 15.54C190.195 15.3267 190.635 15.1267 191.222 14.94C191.729 14.8067 192.275 14.78 192.862 14.86C194.302 15.02 195.289 15.5933 195.822 16.58C196.329 17.54 196.275 18.42 195.662 19.22C195.502 19.4333 195.289 19.6067 195.022 19.74C194.702 19.9 194.342 19.98 193.942 19.98C193.515 19.98 193.142 19.9 192.822 19.74C192.022 19.34 191.649 18.66 191.702 17.7C191.702 17.46 191.742 17.2333 191.822 17.02C191.902 16.8333 191.942 16.7267 191.942 16.7L191.662 16.78C190.115 17.1 189.222 18.8333 188.982 21.98V29.98C189.062 30.14 189.835 30.2333 191.302 30.26H192.822V31.38V32.5H192.462C192.489 32.5 191.542 32.4733 189.622 32.42C187.969 32.3933 186.435 32.3933 185.022 32.42C183.395 32.4733 182.569 32.5 182.542 32.5H182.182V31.38V30.26H183.022C184.409 30.26 185.155 30.1667 185.262 29.98V18.86C185.155 18.22 184.822 17.82 184.262 17.66C183.969 17.58 183.515 17.5267 182.902 17.5H182.182V16.38C182.182 15.6333 182.209 15.26 182.262 15.26L185.422 15.06ZM201.806 5.82C202.739 5.60667 203.553 5.83333 204.246 6.5C204.753 7.06 205.006 7.67333 205.006 8.34C205.006 8.76667 204.913 9.16667 204.726 9.54C204.246 10.4467 203.459 10.9267 202.366 10.98C201.353 10.98 200.593 10.5267 200.086 9.62C199.873 9.22 199.766 8.79333 199.766 8.34C199.766 7.94 199.859 7.55333 200.046 7.18C200.393 6.43333 200.979 5.98 201.806 5.82ZM201.526 15.06C203.766 14.9 204.833 14.82 204.726 14.82H204.846V22.38C204.846 27.42 204.873 29.9667 204.926 30.02C205.006 30.1 205.073 30.14 205.126 30.14C205.286 30.22 205.873 30.26 206.886 30.26H207.646V31.38V32.5H207.326L205.046 32.42C203.713 32.3933 202.339 32.3933 200.926 32.42C199.299 32.4733 198.473 32.5 198.446 32.5H198.086V31.38V30.26H198.926C200.313 30.26 201.059 30.1667 201.166 29.98C201.193 29.9533 201.206 28.1133 201.206 24.46C201.206 20.62 201.153 18.5667 201.046 18.3C200.966 18.06 200.806 17.8867 200.566 17.78C200.193 17.5933 199.566 17.5 198.686 17.5H198.246V16.38V15.26H198.326L201.526 15.06ZM209.019 16.38V15.26H209.299L211.419 15.34C212.646 15.3667 213.992 15.3667 215.459 15.34L217.979 15.26H218.299V16.38V17.5L217.859 17.54C217.646 17.54 217.419 17.58 217.179 17.66C216.992 17.7133 216.899 17.78 216.899 17.86C216.899 17.9667 217.286 18.5533 218.059 19.62L219.219 21.26C219.272 21.26 219.566 20.8733 220.099 20.1C220.792 19.1933 221.126 18.6067 221.099 18.34C221.019 17.8867 220.739 17.62 220.259 17.54L220.019 17.5V16.38V15.26H220.299L222.579 15.34C225.086 15.3933 226.926 15.3667 228.099 15.26H228.379V16.38V17.5H228.019C227.512 17.5 226.886 17.5533 226.139 17.66C224.966 17.8733 224.126 18.2467 223.619 18.78C223.432 18.9667 222.872 19.7133 221.939 21.02L220.459 23.02L220.659 23.34L225.339 29.94C225.446 30.0467 225.566 30.1 225.699 30.1C225.939 30.2067 226.739 30.26 228.099 30.26H229.059V31.38V32.5H228.779C227.499 32.3933 225.446 32.3667 222.619 32.42L220.099 32.5H219.739V31.38V30.26H220.059C220.779 30.2067 221.166 30.0867 221.219 29.9C221.219 29.8733 220.752 29.1933 219.819 27.86C218.912 26.58 218.419 25.94 218.339 25.94L216.179 28.9C216.046 29.14 216.046 29.4067 216.179 29.7C216.339 30.0467 216.646 30.2333 217.099 30.26H217.179V31.38V32.5H216.859L214.579 32.42C213.272 32.3933 212.072 32.3933 210.979 32.42C209.726 32.4733 209.086 32.5 209.059 32.5H208.819V31.38V30.26H209.499C211.606 30.18 212.992 29.7267 213.659 28.9C213.712 28.82 214.312 28.0067 215.459 26.46C216.579 24.94 217.139 24.1667 217.139 24.14L214.939 20.94C213.472 18.86 212.646 17.7667 212.459 17.66C212.406 17.6333 212.272 17.6067 212.059 17.58L210.379 17.5H209.019V16.38Z" fill="white"/>
<path d="M42.8086 14.66C45.2086 14.3667 47.3819 15.0333 49.3286 16.66C49.5153 16.82 49.6886 16.98 49.8486 17.14C50.2486 17.54 50.4886 17.8067 50.5686 17.94C52.3019 20.1533 52.9553 22.6333 52.5286 25.38C52.5019 25.5133 52.4753 25.6467 52.4486 25.78C51.9686 28.26 50.6486 30.18 48.4886 31.54C47.6886 32.0467 46.8219 32.42 45.8886 32.66C45.2753 32.82 44.5819 32.9 43.8086 32.9C43.0086 32.9 42.3019 32.82 41.6886 32.66C39.1819 32.02 37.3019 30.58 36.0486 28.34C35.3019 26.98 34.9286 25.5133 34.9286 23.94C34.9286 21.9933 35.4486 20.2467 36.4886 18.7C38.0353 16.3267 40.1419 14.98 42.8086 14.66ZM44.4486 16.5C42.9553 16.2867 41.7019 16.66 40.6886 17.62C39.8886 18.34 39.4353 19.5533 39.3286 21.26C39.3019 21.3667 39.2886 21.4867 39.2886 21.62C39.1819 22.98 39.1953 24.58 39.3286 26.42C39.4353 27.4067 39.6219 28.1533 39.8886 28.66C40.4486 29.8867 41.4753 30.62 42.9686 30.86C43.4753 30.9667 43.9953 30.98 44.5286 30.9C46.0219 30.66 47.0753 29.9133 47.6886 28.66C47.9553 28.1533 48.1419 27.4067 48.2486 26.42C48.3819 25.1933 48.3953 23.66 48.2886 21.82C48.2886 21.74 48.2886 21.6733 48.2886 21.62C48.1819 19.78 47.7553 18.4867 47.0086 17.74C46.9819 17.7133 46.9419 17.6733 46.8886 17.62C46.2219 16.98 45.4086 16.6067 44.4486 16.5ZM62.8086 14.66C65.2086 14.3667 67.3819 15.0333 69.3286 16.66C69.5153 16.82 69.6886 16.98 69.8486 17.14C70.2486 17.54 70.4886 17.8067 70.5686 17.94C72.3019 20.1533 72.9553 22.6333 72.5286 25.38C72.5019 25.5133 72.4753 25.6467 72.4486 25.78C71.9686 28.26 70.6486 30.18 68.4886 31.54C67.6886 32.0467 66.8219 32.42 65.8886 32.66C65.2753 32.82 64.5819 32.9 63.8086 32.9C63.0086 32.9 62.3019 32.82 61.6886 32.66C59.1819 32.02 57.3019 30.58 56.0486 28.34C55.3019 26.98 54.9286 25.5133 54.9286 23.94C54.9286 21.9933 55.4486 20.2467 56.4886 18.7C58.0353 16.3267 60.1419 14.98 62.8086 14.66ZM64.4486 16.5C62.9553 16.2867 61.7019 16.66 60.6886 17.62C59.8886 18.34 59.4353 19.5533 59.3286 21.26C59.3019 21.3667 59.2886 21.4867 59.2886 21.62C59.1819 22.98 59.1953 24.58 59.3286 26.42C59.4353 27.4067 59.6219 28.1533 59.8886 28.66C60.4486 29.8867 61.4753 30.62 62.9686 30.86C63.4753 30.9667 63.9953 30.98 64.5286 30.9C66.0219 30.66 67.0753 29.9133 67.6886 28.66C67.9553 28.1533 68.1419 27.4067 68.2486 26.42C68.3819 25.1933 68.3953 23.66 68.2886 21.82C68.2886 21.74 68.2886 21.6733 68.2886 21.62C68.1819 19.78 67.7553 18.4867 67.0086 17.74C66.9819 17.7133 66.9419 17.6733 66.8886 17.62C66.2219 16.98 65.4086 16.6067 64.4486 16.5Z" fill="#FF3508"/>
<ellipse cx="44" cy="24" rx="6" ry="8" fill="#FF3508"/>
<ellipse cx="63.5" cy="24" rx="6.5" ry="8" fill="#FF3508"/>
</svg>
