<svg width="198" height="51" viewBox="0 0 198 51" fill="none" xmlns="http://www.w3.org/2000/svg">
<path d="M31.4971 10.2695C31.4971 4.88299 35.8637 0.516357 41.2502 0.516357C46.6367 0.516357 51.0034 4.88299 51.0034 10.2695C51.0034 15.656 46.6367 20.0227 41.2502 20.0227C35.8637 20.0227 31.4971 15.656 31.4971 10.2695Z" fill="black"/>
<path d="M41.8405 24.345V31.3636C41.8405 34.4732 41.8387 36.6729 41.696 38.3914C41.5555 40.0839 41.2894 41.1147 40.8694 41.9233C40.051 43.4987 38.7665 44.7832 37.1912 45.6015C36.3825 46.0216 35.3517 46.2876 33.6592 46.4282C31.9407 46.5709 29.741 46.5727 26.6315 46.5727H20.1558C17.0462 46.5727 14.8466 46.5709 13.1281 46.4282C11.4355 46.2876 10.4048 46.0216 9.59611 45.6015C8.02074 44.7832 6.73624 43.4987 5.9179 41.9233C5.49783 41.1147 5.23181 40.0839 5.09125 38.3914C4.94854 36.6729 4.94679 34.4732 4.94679 31.3636V24.888C4.94679 21.7784 4.94854 19.5788 5.09125 17.8603C5.23181 16.1677 5.49783 15.137 5.9179 14.3283C6.73624 12.7529 8.02074 11.4684 9.59611 10.6501C10.4048 10.23 11.4355 9.96399 13.1281 9.82343C14.8466 9.68071 17.0462 9.67897 20.1558 9.67897H27.1744C27.2371 8.15959 27.5403 6.70231 28.0471 5.34424L20.0594 5.34424C17.0679 5.34422 14.6883 5.34421 12.7693 5.50357C10.8039 5.66679 9.12844 6.00833 7.59791 6.80338C5.23083 8.03298 3.3008 9.96301 2.0712 12.3301C1.27615 13.8606 0.934609 15.5361 0.771388 17.5015C0.612029 19.4205 0.612043 21.8001 0.612061 24.7915V31.4601C0.612043 34.4515 0.612029 36.8312 0.771388 38.7501C0.934609 40.7155 1.27615 42.391 2.0712 43.9215C3.3008 46.2886 5.23083 48.2186 7.59791 49.4482C9.12844 50.2433 10.8039 50.5848 12.7693 50.7481C14.6882 50.9074 17.0678 50.9074 20.0592 50.9074H26.7278C29.7192 50.9074 32.099 50.9074 34.0179 50.7481C35.9834 50.5848 37.6588 50.2433 39.1894 49.4482C41.5564 48.2186 43.4865 46.2886 44.7161 43.9215C45.5111 42.391 45.8527 40.7155 46.0159 38.7501C46.1752 36.8312 46.1752 34.4516 46.1752 31.4602V23.4723C44.8171 23.9791 43.3599 24.2823 41.8405 24.345Z" fill="black"/>
<path d="M78.8999 23.9732C78.8999 25.3039 78.579 26.5515 77.9374 27.7159C77.3196 28.8804 76.3334 29.819 74.9789 30.5319C73.6481 31.2448 71.9609 31.6013 69.9172 31.6013H65.7467V41.1543H60.7563V16.2738H69.9172C71.8421 16.2738 73.4818 16.6065 74.8363 17.2718C76.1908 17.9372 77.2008 18.8521 77.8661 20.0165C78.5553 21.181 78.8999 22.4998 78.8999 23.9732ZM69.7033 27.5734C71.0816 27.5734 72.1035 27.2644 72.7688 26.6466C73.4342 26.005 73.7669 25.1138 73.7669 23.9732C73.7669 21.5493 72.4124 20.3374 69.7033 20.3374H65.7467V27.5734H69.7033Z" fill="black"/>
<path d="M86.0075 24.4722C86.6491 23.4266 87.4808 22.6068 88.5027 22.0127C89.5483 21.4186 90.7364 21.1216 92.0672 21.1216V26.3614H90.7483C89.1799 26.3614 87.9917 26.7298 87.1838 27.4664C86.3996 28.2031 86.0075 29.4863 86.0075 31.3161V41.1543H81.0171V21.4067H86.0075V24.4722Z" fill="black"/>
<path d="M102.771 41.4751C100.87 41.4751 99.1593 41.0592 97.6385 40.2275C96.1176 39.372 94.9175 38.1719 94.0383 36.6273C93.1828 35.0827 92.7551 33.3004 92.7551 31.2805C92.7551 29.2606 93.1947 27.4783 94.0739 25.9337C94.9769 24.389 96.2008 23.2009 97.7454 22.3691C99.29 21.5137 101.013 21.0859 102.914 21.0859C104.815 21.0859 106.538 21.5137 108.083 22.3691C109.627 23.2009 110.839 24.389 111.718 25.9337C112.621 27.4783 113.073 29.2606 113.073 31.2805C113.073 33.3004 112.61 35.0827 111.683 36.6273C110.78 38.1719 109.544 39.372 107.976 40.2275C106.431 41.0592 104.696 41.4751 102.771 41.4751ZM102.771 37.1263C103.674 37.1263 104.518 36.9125 105.302 36.4847C106.11 36.0332 106.752 35.3678 107.227 34.4886C107.702 33.6093 107.94 32.54 107.94 31.2805C107.94 29.4032 107.441 27.9655 106.443 26.9674C105.469 25.9456 104.269 25.4346 102.843 25.4346C101.417 25.4346 100.217 25.9456 99.2425 26.9674C98.292 27.9655 97.8167 29.4032 97.8167 31.2805C97.8167 33.1578 98.2801 34.6074 99.2069 35.6292C100.157 36.6273 101.346 37.1263 102.771 37.1263Z" fill="black"/>
<path d="M114.024 31.2092C114.024 29.2131 114.417 27.4427 115.201 25.898C116.009 24.3534 117.102 23.1652 118.48 22.3335C119.858 21.5018 121.391 21.0859 123.078 21.0859C124.362 21.0859 125.585 21.3711 126.75 21.9414C127.914 22.488 128.841 23.2246 129.53 24.1514V14.7767H134.592V41.1543H129.53V38.2313C128.912 39.2056 128.045 39.9898 126.928 40.5839C125.811 41.178 124.516 41.4751 123.043 41.4751C121.379 41.4751 119.858 41.0473 118.48 40.1918C117.102 39.3363 116.009 38.1363 115.201 36.5917C114.417 35.0233 114.024 33.2291 114.024 31.2092ZM129.566 31.2805C129.566 30.0685 129.328 29.0348 128.853 28.1793C128.378 27.3001 127.736 26.6347 126.928 26.1832C126.12 25.7079 125.253 25.4703 124.326 25.4703C123.399 25.4703 122.544 25.696 121.76 26.1476C120.975 26.5991 120.334 27.2644 119.835 28.1437C119.359 28.9992 119.122 30.021 119.122 31.2092C119.122 32.3974 119.359 33.443 119.835 34.346C120.334 35.2252 120.975 35.9025 121.76 36.3778C122.568 36.8531 123.423 37.0907 124.326 37.0907C125.253 37.0907 126.12 36.8649 126.928 36.4134C127.736 35.9382 128.378 35.2728 128.853 34.4173C129.328 33.538 129.566 32.4924 129.566 31.2805Z" fill="black"/>
<path d="M156.683 21.4067V41.1543H151.657V38.6591C151.015 39.5146 150.171 40.1918 149.126 40.6909C148.104 41.1661 146.987 41.4038 145.775 41.4038C144.23 41.4038 142.864 41.083 141.676 40.4414C140.488 39.776 139.549 38.8136 138.86 37.5541C138.194 36.2708 137.862 34.75 137.862 32.9915V21.4067H142.852V32.2786C142.852 33.847 143.244 35.0589 144.028 35.9144C144.813 36.7461 145.882 37.162 147.237 37.162C148.615 37.162 149.696 36.7461 150.48 35.9144C151.264 35.0589 151.657 33.847 151.657 32.2786V21.4067H156.683Z" fill="black"/>
<path d="M158.897 31.2805C158.897 29.2368 159.313 27.4546 160.145 25.9337C160.977 24.389 162.129 23.2009 163.603 22.3691C165.076 21.5137 166.763 21.0859 168.664 21.0859C171.112 21.0859 173.132 21.7038 174.724 22.9395C176.34 24.1514 177.421 25.8624 177.968 28.0724H172.585C172.3 27.2169 171.813 26.5515 171.124 26.0763C170.458 25.5772 169.627 25.3277 168.628 25.3277C167.203 25.3277 166.074 25.8505 165.242 26.8961C164.41 27.9179 163.995 29.3794 163.995 31.2805C163.995 33.1578 164.41 34.6193 165.242 35.6649C166.074 36.6867 167.203 37.1976 168.628 37.1976C170.648 37.1976 171.967 36.2946 172.585 34.4886H177.968C177.421 36.6273 176.34 38.3264 174.724 39.5859C173.108 40.8453 171.088 41.4751 168.664 41.4751C166.763 41.4751 165.076 41.0592 163.603 40.2275C162.129 39.372 160.977 38.1838 160.145 36.6629C159.313 35.1183 158.897 33.3242 158.897 31.2805Z" fill="black"/>
<path d="M186.008 25.5059V35.0589C186.008 35.7243 186.162 36.2114 186.471 36.5204C186.804 36.8055 187.35 36.9481 188.111 36.9481H190.428V41.1543H187.291C183.085 41.1543 180.982 39.1106 180.982 35.0233V25.5059H178.629V21.4067H180.982V16.5233H186.008V21.4067H190.428V25.5059H186.008Z" fill="black"/>
<path d="M194.801 41.404C193.898 41.404 193.15 41.1307 192.556 40.5841C191.985 40.0138 191.7 39.3128 191.7 38.481C191.7 37.6493 191.985 36.9602 192.556 36.4136C193.15 35.8433 193.898 35.5581 194.801 35.5581C195.681 35.5581 196.405 35.8433 196.976 36.4136C197.546 36.9602 197.831 37.6493 197.831 38.481C197.831 39.3128 197.546 40.0138 196.976 40.5841C196.405 41.1307 195.681 41.404 194.801 41.404Z" fill="black"/>
</svg>
