<svg width="215" height="59" viewBox="0 0 215 59" fill="none" xmlns="http://www.w3.org/2000/svg">
<path d="M26.6491 58.9072H7.4808L26.6491 29.921H45.8174L26.6491 58.9072Z" fill="black"/>
<path d="M19.6358 -6.10352e-05H39.2716L19.6358 29.9212H0L19.6358 -6.10352e-05Z" fill="black"/>
<path d="M84.9218 25.2162C84.9218 26.9938 84.4933 28.6603 83.6362 30.2157C82.8109 31.7711 81.4936 33.0249 79.6842 33.9772C77.9067 34.9294 75.6529 35.4056 72.9231 35.4056H67.3522V48.1661H60.6863V14.9316H72.9231C75.4942 14.9316 77.6845 15.376 79.4938 16.2648C81.3031 17.1536 82.6522 18.3757 83.541 19.9311C84.4615 21.4864 84.9218 23.2482 84.9218 25.2162ZM72.6374 30.0252C74.4785 30.0252 75.8434 29.6126 76.7322 28.7873C77.621 27.9302 78.0654 26.7399 78.0654 25.2162C78.0654 21.9785 76.256 20.3596 72.6374 20.3596H67.3522V30.0252H72.6374Z" fill="black"/>
<path d="M94.4159 25.8828C95.273 24.4861 96.384 23.391 97.7489 22.5974C99.1456 21.8039 100.733 21.4071 102.51 21.4071V28.4063H100.749C98.6536 28.4063 97.0664 28.8984 95.9872 29.8824C94.9397 30.8664 94.4159 32.5805 94.4159 35.0247V48.1661H87.75V21.788H94.4159V25.8828Z" fill="black"/>
<path d="M116.809 48.5947C114.269 48.5947 111.984 48.0392 109.952 46.9282C107.921 45.7854 106.318 44.1824 105.143 42.1192C104 40.0559 103.429 37.6752 103.429 34.9771C103.429 32.2789 104.016 29.8982 105.191 27.835C106.397 25.7717 108.032 24.1846 110.095 23.0736C112.158 21.9308 114.46 21.3595 116.999 21.3595C119.538 21.3595 121.84 21.9308 123.903 23.0736C125.966 24.1846 127.585 25.7717 128.76 27.835C129.966 29.8982 130.569 32.2789 130.569 34.9771C130.569 37.6752 129.95 40.0559 128.712 42.1192C127.506 44.1824 125.855 45.7854 123.76 46.9282C121.697 48.0392 119.38 48.5947 116.809 48.5947ZM116.809 42.7858C118.015 42.7858 119.142 42.5001 120.189 41.9287C121.268 41.3256 122.126 40.4368 122.76 39.2623C123.395 38.0878 123.713 36.6594 123.713 34.9771C123.713 32.4694 123.046 30.549 121.713 29.2158C120.411 27.8508 118.808 27.1684 116.904 27.1684C114.999 27.1684 113.396 27.8508 112.095 29.2158C110.825 30.549 110.19 32.4694 110.19 34.9771C110.19 37.4847 110.809 39.421 112.047 40.786C113.317 42.1192 114.904 42.7858 116.809 42.7858Z" fill="black"/>
<path d="M140.22 42.881H147.379V48.1661H133.554V10.8368H140.22V42.881Z" fill="black"/>
<path d="M152.55 18.6455C151.375 18.6455 150.391 18.2804 149.598 17.5504C148.836 16.7885 148.455 15.8521 148.455 14.7411C148.455 13.6301 148.836 12.7096 149.598 11.9795C150.391 11.2177 151.375 10.8368 152.55 10.8368C153.724 10.8368 154.692 11.2177 155.454 11.9795C156.248 12.7096 156.644 13.6301 156.644 14.7411C156.644 15.8521 156.248 16.7885 155.454 17.5504C154.692 18.2804 153.724 18.6455 152.55 18.6455ZM155.835 21.788V48.1661H149.169V21.788H155.835Z" fill="black"/>
<path d="M175.134 21.4071C178.276 21.4071 180.816 22.407 182.752 24.4068C184.688 26.3748 185.657 29.1364 185.657 32.6916V48.1661H178.991V33.5963C178.991 31.5012 178.467 29.8982 177.419 28.7873C176.372 27.6445 174.943 27.0731 173.134 27.0731C171.293 27.0731 169.833 27.6445 168.754 28.7873C167.706 29.8982 167.182 31.5012 167.182 33.5963V48.1661H160.516V21.788H167.182V25.0734C168.071 23.9306 169.198 23.0418 170.563 22.407C171.96 21.7404 173.483 21.4071 175.134 21.4071Z" fill="black"/>
<path d="M214.612 34.4057C214.612 35.358 214.549 36.215 214.422 36.9769H195.138C195.297 38.8814 195.963 40.3733 197.138 41.4526C198.312 42.5318 199.757 43.0714 201.471 43.0714C203.947 43.0714 205.708 42.0081 206.756 39.8813H213.946C213.184 42.4207 211.724 44.5157 209.565 46.1663C207.407 47.7852 204.756 48.5947 201.614 48.5947C199.074 48.5947 196.789 48.0392 194.757 46.9282C192.757 45.7854 191.186 44.1824 190.043 42.1192C188.932 40.0559 188.377 37.6752 188.377 34.9771C188.377 32.2472 188.932 29.8506 190.043 27.7874C191.154 25.7241 192.71 24.137 194.71 23.026C196.709 21.915 199.011 21.3595 201.614 21.3595C204.121 21.3595 206.359 21.8991 208.327 22.9783C210.327 24.0576 211.866 25.5971 212.946 27.5969C214.057 29.5649 214.612 31.8345 214.612 34.4057ZM207.708 32.5011C207.676 30.787 207.057 29.4221 205.851 28.4063C204.645 27.3588 203.169 26.8351 201.423 26.8351C199.772 26.8351 198.376 27.343 197.233 28.3587C196.122 29.3427 195.44 30.7236 195.186 32.5011H207.708Z" fill="black"/>
</svg>
