<svg width="41" height="37" viewBox="0 0 41 37" fill="none" xmlns="http://www.w3.org/2000/svg">
<path d="M7.51133 8.24897C7.13496 8.32632 7.3752 8.31226 7.06289 8.34741C5.72559 8.60054 6.71855 8.82554 7.51133 8.24897ZM31.0303 8.72007C31.1264 8.66382 31.4627 8.37554 30.4137 8.09429C30.4777 8.38257 30.1975 8.35444 30.1975 8.51616C30.9742 9.13491 31.2945 10.2107 32.2875 10.4357C32.4797 9.66226 31.4066 9.28257 31.0303 8.72007ZM6.79863 8.02397C6.91875 8.64976 7.45527 7.36304 7.46328 6.90601C7.25508 7.01147 7.04688 7.11694 6.83066 7.20132C7.33516 7.42632 6.89473 7.66538 6.3502 8.02397C5.24512 9.23335 7.3832 7.08179 6.79863 8.02397ZM20.5 0.191162C9.17695 0.191162 0 8.24897 0 18.1912C0 28.1263 9.17695 36.1912 20.5 36.1912C31.823 36.1912 41 28.1263 41 18.1912C41 8.24897 31.823 0.191162 20.5 0.191162ZM21.0445 6.22397L21.1406 6.2521C20.7563 6.68804 23.1426 7.96069 21.4289 8.06616C19.8273 8.46694 22.1016 7.70054 20.8604 7.83413C21.517 7.03257 20.3398 7.01851 21.0445 6.22397ZM11.323 7.3771C10.7465 6.95522 8.93672 7.95366 9.56934 7.7146C11.1389 7.17319 9.67344 7.77085 10.0418 8.41772C9.70547 9.02944 9.92969 7.81304 9.09688 8.53726C8.49629 8.65679 7.02285 9.8521 7.20703 9.48647C7.15898 10.056 5.45332 10.731 5.22109 11.6802C4.66055 12.9951 5.08496 11.631 4.98086 11.1177C4.18008 10.2248 2.72266 12.6294 3.15508 13.5787C3.88379 12.4537 3.82773 13.4591 3.29922 13.9584C3.83574 14.8232 2.81074 15.9482 3.82773 16.588C4.27617 16.6794 5.17305 15.2662 4.78066 16.7357C5.05293 15.463 5.5334 17.038 6.31016 16.6865C6.3582 17.3544 6.83066 17.0451 6.93477 17.8537C8.23203 17.7693 9.41719 19.6959 7.87168 20.0615C8.10391 20.0052 8.56035 20.3638 9.08887 20.0896C9.98574 20.7154 12.348 20.7927 12.4121 22.3396C10.7865 23.0216 12.0117 24.8919 10.6023 25.5599C8.98477 25.349 10.0498 27.3107 9.36914 27.0857C9.64141 28.499 7.73555 26.9029 8.47227 27.6833C9.82559 28.4146 7.87969 28.2669 8.48828 28.8013C7.80762 28.6748 8.91269 29.9123 9.09688 30.3693C10.0738 31.7615 8.25605 30.0599 7.71953 29.5958C7.20703 28.6959 5.99785 26.9732 5.66152 25.5599C5.46934 23.5068 3.65957 22.1287 3.24316 20.1248C2.82676 19.0068 4.38828 17.2138 3.54746 16.588C2.81875 16.0888 3.11504 14.3802 2.68262 13.4802C3.76367 9.36694 7.19902 5.90054 11.323 3.84741C10.8986 4.12163 13.7494 3.13726 13.4211 3.37632C13.333 3.5521 15.0867 2.70835 16.1438 2.58179C16.0316 2.59585 13.3971 3.42554 14.1258 3.31304C12.9967 3.79819 14.0137 3.52397 14.5742 3.27788C13.4531 4.0021 12.5883 3.79819 11.315 4.43804C10.0338 4.73335 10.298 5.90054 9.38516 6.48413C9.92168 6.56851 11.267 5.26772 12.0518 4.81069C13.8535 4.04429 11.1389 6.20288 12.8525 5.27476C12.276 5.74585 12.3961 6.49819 12.0437 6.70913C11.8676 6.66694 12.7404 7.07476 11.323 7.3771ZM14.1258 4.14272C13.9416 4.36069 13.6854 4.83179 13.5332 4.54351C13.325 4.63491 13.2449 5.02866 12.8525 4.71226C13.0848 4.5646 13.325 4.21304 12.8686 4.43101C13.0768 4.23413 14.9346 3.67866 14.8305 3.46772C15.1588 3.28491 15.1268 3.19351 14.7504 3.30601C14.5582 3.24976 15.2068 2.77163 16.0717 2.70835C16.1918 2.70835 16.2398 2.77866 16.0236 2.75757C14.7184 3.10913 15.2789 3.01069 16.1598 2.75757C15.8234 2.92632 15.5912 2.97554 15.5352 3.05288C16.416 2.77163 15.4871 3.25679 15.6873 3.22163C15.4391 3.33413 15.7273 3.36929 15.2469 3.53101C15.335 3.46772 14.4621 3.98804 14.9826 3.83335C14.4781 4.25522 14.2539 4.26226 14.1258 4.14272ZM14.8945 5.14819C14.9105 4.47319 16.0156 4.04429 15.8795 4.00913C17.2408 3.44663 15.407 4.03022 16.4801 3.52397C16.8805 3.48882 17.7293 2.36382 18.9064 2.29351C20.2037 1.94897 19.6031 2.3146 20.5641 1.99116L20.3719 2.13179C20.2037 2.15288 20.4119 2.41304 19.8033 2.80679C19.7393 3.41851 18.6422 3.13726 19.1867 3.79116C18.8344 3.34819 18.3059 3.7771 18.9705 3.81929C18.2578 4.29741 16.6002 4.38179 15.8074 5.17632C15.2949 5.82319 14.8225 5.61929 14.8945 5.14819ZM20.5881 7.39819C20.0436 8.55132 19.515 7.22944 20.476 7.01851C20.7162 7.13101 20.8123 7.16616 20.5881 7.39819ZM18.5381 5.09194C18.3779 4.57163 18.5061 4.84585 19.459 4.59976C20.1156 5.0146 18.8744 5.28882 18.5381 5.09194ZM33.4486 25.7287C32.6959 24.5896 34.3615 23.5349 34.9221 22.5787C34.85 23.6966 34.6898 24.8005 33.4486 25.7287ZM36.2834 12.7138C35.4666 12.7701 34.7299 12.9388 33.9932 12.531C32.2955 10.8998 34.3055 14.3732 34.866 12.9529C36.884 13.6279 34.834 16.5388 33.5607 16.2365C32.848 14.8865 31.9672 13.4029 30.4137 12.7419C31.6068 13.9021 32.1994 15.3294 33.4807 16.3771C33.5688 17.8396 35.2584 15.8427 35.1543 16.9748C35.3145 18.9224 32.6479 20.0896 33.1123 22.0443C34.1053 23.8232 31.1984 24.1466 31.5268 25.7427C30.3576 26.8888 29.1084 28.4357 27.0104 28.1896C27.0104 27.2193 26.4498 26.3966 26.3217 25.3982C25.1846 24.1326 27.5229 22.7755 26.0734 21.4537C24.3998 21.1232 26.4178 19.0982 24.6961 19.288C23.6631 18.381 22.1496 19.2599 20.6682 19.2669C18.8104 19.4216 16.8965 17.263 17.7213 15.7373C17.0646 14.1482 19.8033 13.6841 19.8754 12.2849C21.1887 11.3216 23.0545 11.4412 24.8322 11.2162C24.7041 12.3341 26.0494 12.3412 27.0664 12.7138C27.635 11.5044 29.4047 12.9107 30.6139 12.1443C31.0303 10.3583 29.4367 11.4341 28.5238 10.8646C27.4188 9.44429 30.8861 10.1333 30.5258 9.38804C29.1805 9.38101 29.9412 7.93257 28.9883 8.74116C29.8451 8.87476 28.8361 9.46538 28.8602 8.79038C27.5629 8.45991 28.8121 10.0841 28.1555 10.2388C27.1545 9.87319 27.627 10.6537 27.7311 10.7732C27.2986 11.5958 26.7701 9.56382 25.5449 9.62007C24.3277 8.64272 25.0645 10.063 26.1215 10.2951C25.8973 10.3513 26.2496 11.1599 25.9693 10.8154C25.0965 9.76069 23.4389 9.05757 22.4539 10.3513C22.3498 11.5607 19.5471 11.9052 19.9955 10.4919C19.3389 9.02944 22.0295 10.4498 21.7812 9.28257C20.0516 8.2771 22.2537 8.60054 22.8383 7.65835C24.1676 7.69351 22.8943 6.7021 23.5189 6.41382C23.4549 7.4896 24.5359 7.28569 25.3928 7.08179C25.1846 6.46304 25.9053 6.48413 25.4648 5.97085C27.4508 5.27476 23.9514 6.29429 24.6561 4.76851C23.7992 4.24819 24.2957 5.9146 24.6561 6.09038C24.6801 6.60366 24.1836 7.23647 23.5029 6.16069C22.51 6.73022 22.6141 5.58413 22.55 5.70366C22.4379 5.26069 23.3027 5.2396 23.3107 4.46616C23.2387 3.97397 23.2547 3.71382 23.6551 3.68569C23.6871 3.75601 25.2967 3.7771 25.8652 4.36069C24.3117 4.08647 25.633 4.58569 26.3297 4.86694C25.585 4.35366 26.626 4.86694 26.0174 4.28335C26.2576 4.32554 25.3527 3.48179 26.2816 4.22007C25.7771 3.69272 27.2666 3.84741 26.3857 3.45366C27.675 3.77007 26.9143 3.48179 26.1535 3.19351C24.0555 2.09663 29.8611 4.6771 27.4908 3.53101C29.0043 3.81929 24.2557 2.50444 26.4178 3.08101C25.593 2.7646 26.3937 2.94038 27.1385 3.14429C25.8012 2.77866 23.7992 2.09663 23.8793 2.06851C24.3438 2.09663 24.8002 2.18804 25.2406 2.30054C26.61 2.65913 24.8482 2.21616 25.2246 2.22319C29.9332 3.28491 34.0572 6.05522 36.5637 9.67632C37.1482 10.2177 38.7418 13.7966 37.909 12.2076C38.2854 13.4732 38.3414 14.8373 38.5416 16.131C38.1252 15.7232 37.6607 14.2185 37.2603 13.3818C37.0922 13.7052 36.9 12.9248 36.2834 12.7138Z" fill="black"/>
</svg>
